<svg width="12" height="9" viewBox="0 0 12 9" fill="none" xmlns="http://www.w3.org/2000/svg">
<path d="M2.90505 4.051C3.11771 4.051 3.32671 4.03267 3.53205 3.996C3.73738 3.952 3.91338 3.88967 4.06005 3.809C4.06738 3.72833 4.07105 3.65867 4.07105 3.6C4.07105 3.54133 4.07105 3.49 4.07105 3.446C4.07105 3.15267 4.04905 2.87767 4.00505 2.621C3.96838 2.357 3.89871 2.12967 3.79605 1.939C3.70071 1.741 3.56505 1.587 3.38905 1.477C3.22038 1.35967 3.00771 1.301 2.75105 1.301C2.53838 1.301 2.35505 1.345 2.20105 1.433C2.05438 1.521 1.93338 1.63467 1.83805 1.774C1.74271 1.91333 1.67305 2.06367 1.62905 2.225C1.58505 2.38633 1.56305 2.544 1.56305 2.698C1.56305 3.14533 1.66938 3.48267 1.88205 3.71C2.10205 3.93733 2.44305 4.051 2.90505 4.051ZM3.95005 4.854C3.77405 4.93467 3.57971 4.997 3.36705 5.041C3.15438 5.085 2.94905 5.107 2.75105 5.107C2.29638 5.107 1.90771 5.04833 1.58505 4.931C1.26971 4.80633 1.00938 4.63767 0.804047 4.425C0.606047 4.205 0.45938 3.952 0.364047 3.666C0.268714 3.38 0.221047 3.072 0.221047 2.742C0.221047 2.456 0.268714 2.16633 0.364047 1.873C0.45938 1.57233 0.609714 1.29733 0.815047 1.048C1.02038 0.798666 1.28071 0.597 1.59605 0.443C1.91138 0.281666 2.28538 0.200999 2.71805 0.200999C3.61271 0.200999 4.28738 0.490666 4.74205 1.07C5.20405 1.642 5.43505 2.45233 5.43505 3.501C5.43505 4.98233 5.05371 6.10433 4.29105 6.867C3.52838 7.62967 2.35871 8.01467 0.782047 8.022L0.727047 6.911C1.16705 6.911 1.56305 6.87433 1.91505 6.801C2.27438 6.72767 2.58605 6.61033 2.85005 6.449C3.12138 6.28767 3.34871 6.07867 3.53205 5.822C3.71538 5.558 3.85471 5.23533 3.95005 4.854ZM9.157 4.051C9.36967 4.051 9.57867 4.03267 9.784 3.996C9.98933 3.952 10.1653 3.88967 10.312 3.809C10.3193 3.72833 10.323 3.65867 10.323 3.6C10.323 3.54133 10.323 3.49 10.323 3.446C10.323 3.15267 10.301 2.87767 10.257 2.621C10.2203 2.357 10.1507 2.12967 10.048 1.939C9.95267 1.741 9.817 1.587 9.641 1.477C9.47233 1.35967 9.25967 1.301 9.003 1.301C8.79033 1.301 8.607 1.345 8.453 1.433C8.30633 1.521 8.18533 1.63467 8.09 1.774C7.99467 1.91333 7.925 2.06367 7.881 2.225C7.837 2.38633 7.815 2.544 7.815 2.698C7.815 3.14533 7.92133 3.48267 8.134 3.71C8.354 3.93733 8.695 4.051 9.157 4.051ZM10.202 4.854C10.026 4.93467 9.83167 4.997 9.619 5.041C9.40633 5.085 9.201 5.107 9.003 5.107C8.54833 5.107 8.15967 5.04833 7.837 4.931C7.52167 4.80633 7.26133 4.63767 7.056 4.425C6.858 4.205 6.71133 3.952 6.616 3.666C6.52067 3.38 6.473 3.072 6.473 2.742C6.473 2.456 6.52067 2.16633 6.616 1.873C6.71133 1.57233 6.86167 1.29733 7.067 1.048C7.27233 0.798666 7.53267 0.597 7.848 0.443C8.16333 0.281666 8.53733 0.200999 8.97 0.200999C9.86467 0.200999 10.5393 0.490666 10.994 1.07C11.456 1.642 11.687 2.45233 11.687 3.501C11.687 4.98233 11.3057 6.10433 10.543 6.867C9.78033 7.62967 8.61067 8.01467 7.034 8.022L6.979 6.911C7.419 6.911 7.815 6.87433 8.167 6.801C8.52633 6.72767 8.838 6.61033 9.102 6.449C9.37333 6.28767 9.60067 6.07867 9.784 5.822C9.96733 5.558 10.1067 5.23533 10.202 4.854Z" fill="white"/>
</svg>
