<svg width="24" height="24" viewBox="0 0 24 24" fill="none" xmlns="http://www.w3.org/2000/svg">
<path d="M12 22L2.808 12.808C0.628003 10.24 0.742003 6.38801 3.161 3.96801C4.32102 2.80802 5.87675 2.12956 7.51611 2.06872C9.15547 2.00789 10.7572 2.56918 12 3.64001C13.2415 2.56918 14.8419 2.00709 16.4803 2.06637C18.1188 2.12565 19.6743 2.80192 20.8353 3.95966C21.9962 5.11741 22.6767 6.6711 22.7404 8.30939C22.8042 9.94769 22.2464 11.5496 21.179 12.794L12 22ZM19.662 11.491C20.4008 10.6294 20.7868 9.52045 20.7426 8.38631C20.6983 7.25217 20.2272 6.17664 19.4235 5.37521C18.6198 4.57378 17.5429 4.10566 16.4086 4.06464C15.2744 4.02362 14.1665 4.41273 13.307 5.15401L12 6.28201L10.693 5.15401C9.83351 4.41273 8.72564 4.02362 7.59138 4.06464C6.45712 4.10566 5.38026 4.57378 4.57655 5.37521C3.77285 6.17664 3.30167 7.25217 3.25744 8.38631C3.2132 9.52045 3.59917 10.6294 4.338 11.491L4.452 11.623L12 19.172L19.548 11.623L19.662 11.491Z" fill="black"/>
</svg>
